#!OML:ASF G:\JayActor3\Patient Classification 1\Patient 1\Session 6\male.ASF
:FULLY-SPECIFIED
:DEGREES
3364
root 3.90786 16.6697 -7.24383 712.989 -78.4354 -710.242
lowerback 3.73627 -3.37788 4.48299
upperback 1.95163 -4.57204 7.14987
thorax 0.175021 -2.39419 5.05669
lowerneck -0.14286 -6.69506 -4.66467
upperneck 35.7249 -12.9027 2.97326
head 12.378 -6.72936 0.474518
rclavicle 4.96962e-014 -2.54444e-014
rhumerus -23.9647 -2.47151 -70.3567
rradius 39.9877
rwrist -3.34166
rhand -20.2986 -4.74475
rfingers 7.12502
rthumb 6.05153 -34.6383
lclavicle 4.96962e-014 -2.54444e-014
lhumerus -39.5724 2.65314 87.7751
lradius 36.3665
lwrist 27.7716
lhand -9.15957 5.40849
lfingers 7.12502
lthumb 16.7928 34.7023
rfemur -15.0521 -2.4031 15.7372
rtibia 34.369
rfoot -30.8646 -24.5833
rtoes 7.29131
lfemur 9.04823 7.67377 -11.3575
ltibia 1.27222e-014
lfoot -0.263803 23.0523
ltoes -6.18526
3365
root 3.8771 16.6836 -7.2632 711.959 -78.3179 -709.087
lowerback 3.74328 -3.33504 4.31581
upperback 1.95314 -4.51372 7.07241
thorax 0.17491 -2.36333 5.06645
lowerneck -0.106736 -6.74003 -4.68812
upperneck 35.708 -12.9727 3.00807
head 12.3724 -6.75799 0.486235
rclavicle 2.8625e-014 9.54166e-015
rhumerus -23.8833 -2.55941 -70.5186
rradius 39.9965
rwrist -3.40132
rhand -20.4834 -4.76289
rfingers 7.12502
rthumb 5.87308 -34.6615
lclavicle 2.8625e-014 9.54166e-015
lhumerus -39.8173 2.66296 87.6735
lradius 36.2081
lwrist 27.7464
lhand -9.26345 5.34641
lfingers 7.12502
lthumb 16.6928 34.6487
rfemur -14.9663 -2.32041 15.5594
rtibia 34.2279
rfoot -30.9329 -24.6673
rtoes 7.66086
lfemur 8.96992 7.64123 -11.4951
ltibia -1.74931e-014
lfoot 0.353268 22.8422
ltoes -6.799
3366
root 3.84587 16.6973 -7.28322 710.926 -78.1903 -707.919
lowerback 3.74102 -3.29199 4.14563
upperback 1.95138 -4.45557 6.99127
thorax 0.176373 -2.33243 5.0736
lowerneck -0.0776098 -6.78509 -4.70954
upperneck 35.6895 -13.0424 3.04441
head 12.3676 -6.78571 0.497896
rclavicle 5.36719e-014 -5.725e-014
rhumerus -23.817 -2.657 -70.6863
rradius 40.0037
rwrist -3.44534
rhand -20.6004 -4.76376
rfingers 7.12502
rthumb 5.76015 -34.6655
lclavicle 5.36719e-014 -5.725e-014
lhumerus -40.0627 2.67034 87.5695
lradius 36.0412
lwrist 27.7208
lhand -9.34107 5.31792
lfingers 7.12502
lthumb 16.6181 34.6265
rfemur -14.8912 -2.24436 15.3749
rtibia 34.0941
rfoot -31.0286 -24.7302
rtoes 7.98617
lfemur 8.87945 7.60493 -11.64
ltibia -1.74931e-014
lfoot 0.990982 22.6197
ltoes -7.45942
3367
root 3.81419 16.7107 -7.3037 709.949 -78.0537 -706.799
lowerback 3.732 -3.24715 3.98908
upperback 1.94717 -4.39496 6.90877
thorax 0.17771 -2.30015 5.07138
lowerneck -0.0558004 -6.83268 -4.73075
upperneck 35.6642 -13.1156 3.08771
head 12.3621 -6.81375 0.511494
rclavicle 3.10104e-014 -9.54166e-015
rhumerus -23.7647 -2.76928 -70.8571
rradius 40.007
rwrist -3.47019
rhand -20.6624 -4.73691
rfingers 7.12502
rthumb 5.70026 -34.6402
lclavicle 3.10104e-014 -9.54166e-015
lhumerus -40.3098 2.66749 87.4669
lradius 35.8719
lwrist 27.7032
lhand -9.3937 5.31212
lfingers 7.12502
lthumb 16.5674 34.6249
rfemur -14.8239 -2.17483 15.1972
rtibia 33.9649
rfoot -31.1389 -24.7836
rtoes 8.28693
lfemur 8.77791 7.56431 -11.7809
ltibia 1.11319e-014
lfoot 1.64314 22.3914
ltoes -8.15949
3368
root 3.78204 16.7238 -7.32456 709.049 -77.909 -705.752
lowerback 3.70946 -3.20286 3.84781
upperback 1.9487 -4.33651 6.82728
thorax 0.191588 -2.26893 5.06073
lowerneck -0.0446487 -6.88167 -4.75171
upperneck 35.627 -13.1898 3.13977
head 12.3545 -6.84057 0.527941
rclavicle -3.57812e-015 -6.04305e-014
rhumerus -23.7127 -2.88801 -71.0332
rradius 40.0113
rwrist -3.47085
rhand -20.6439 -4.72511
rfingers 7.12502
rthumb 5.71815 -34.628
lclavicle -3.57812e-015 -6.04305e-014
lhumerus -40.5481 2.66219 87.3639
lradius 35.6994
lwrist 27.6948
lhand -9.42822 5.33173
lfingers 7.12502
lthumb 16.5342 34.6473
rfemur -14.7584 -2.11247 15.0309
rtibia 33.8364
rfoot -31.2563 -24.833
rtoes 8.58004
lfemur 8.66968 7.51835 -11.9138
ltibia -2.06736e-014
lfoot 2.29441 22.1645
ltoes -8.8723
